<svg width="73" height="37" viewBox="0 0 73 37" fill="none" xmlns="http://www.w3.org/2000/svg">
<g id="Layer_x0020_1">
<path id="Vector" d="M1 36.3509C0.447716 36.3509 0 35.9032 0 35.3509V1C0 0.447717 0.447715 0 1 0H9.95953C10.308 0 10.6314 0.181422 10.813 0.478843L18.2554 12.6667C18.6452 13.3051 19.5724 13.3051 19.9623 12.6667L27.4047 0.478842C27.5863 0.181421 27.9096 0 28.2581 0H36.579C37.3747 0 37.8517 0.884036 37.4149 1.54902L28.3412 15.3626L19.167 29.5533C19.1307 29.6094 19.0685 29.6433 19.0017 29.6433C18.9347 29.6433 18.8722 29.6091 18.836 29.5527L11.7183 18.4515C11.1793 17.6108 9.87647 17.9926 9.87647 18.9913V35.3509C9.87647 35.9032 9.42876 36.3509 8.87647 36.3509H1Z" fill="#9A1313"/>
<path id="Subtract" fill-rule="evenodd" clip-rule="evenodd" d="M63.2196 36.3509C62.8854 36.3509 62.5733 36.1839 62.3878 35.906L39.0814 0.981028C38.8345 0.611084 38.8676 0.0605561 39.3092 0.00725746C39.3489 0.00246591 39.3893 0 39.4303 0H47.3068C47.859 0 48.3068 0.447715 48.3068 1V11.984C48.3068 12.9155 49.4683 13.3411 50.0701 12.6301L60.4601 0.353964C60.6501 0.129469 60.9293 0 61.2234 0H70.3759C71.2333 0 71.6931 1.00823 71.131 1.65561L59.5439 15.001C59.2477 15.3421 59.217 15.8393 59.4689 16.2143L71.9514 34.7932C72.3977 35.4575 71.9216 36.3509 71.1213 36.3509H63.2196Z" fill="#9A1313"/>
<path id="Vector_2" d="M48.3786 36.7841C49.1757 36.7841 49.6524 35.8972 49.2126 35.2324L39.4869 20.5304C39.0895 19.9296 38.2064 19.9334 37.8141 20.5376L28.2685 35.2396C27.8365 35.9048 28.314 36.7841 29.1072 36.7841H48.3786Z" fill="#9A1313"/>
</g>
</svg>
