<svg width="96" height="44" viewBox="0 0 96 44" fill="none" xmlns="http://www.w3.org/2000/svg">
<path id="arrow" d="M91.6465 43.3535C91.8417 43.5488 92.1583 43.5488 92.3536 43.3535L95.5355 40.1716C95.7308 39.9763 95.7308 39.6597 95.5355 39.4645C95.3403 39.2692 95.0237 39.2692 94.8284 39.4645L92 42.2929L89.1716 39.4645C88.9763 39.2692 88.6597 39.2692 88.4645 39.4645C88.2692 39.6597 88.2692 39.9763 88.4645 40.1716L91.6465 43.3535ZM1.5 43C1.5 42.6626 1.50332 42.3273 1.5099 41.9941L0.5101 41.9743C0.50338 42.3142 0.5 42.6561 0.5 43H1.5ZM1.58839 40.0201C1.62743 39.3704 1.67922 38.7292 1.74345 38.0963L0.74856 37.9953C0.682937 38.642 0.630042 39.2969 0.590193 39.9601L1.58839 40.0201ZM1.98731 36.1247C2.08251 35.474 2.19122 34.8328 2.31305 34.2008L1.33112 34.0115C1.20643 34.6584 1.09521 35.3145 0.997843 35.9799L1.98731 36.1247ZM2.72804 32.289C2.88355 31.6462 3.05304 31.0136 3.23609 30.3912L2.27671 30.1091C2.08907 30.7471 1.91538 31.3954 1.75608 32.0539L2.72804 32.289ZM3.82949 28.5429C4.0476 27.9173 4.27987 27.3027 4.5258 26.6991L3.59971 26.3218C3.3473 26.9413 3.10898 27.5719 2.88524 28.2136L3.82949 28.5429ZM5.3041 24.921C5.5844 24.3231 5.87861 23.7368 6.18621 23.162L5.30453 22.6902C4.98861 23.2805 4.68648 23.8826 4.39868 24.4964L5.3041 24.921ZM7.1507 21.4688C7.49052 20.9073 7.84367 20.3576 8.20958 19.8199L7.38283 19.2573C7.00697 19.8097 6.64423 20.3742 6.29517 20.951L7.1507 21.4688ZM9.35085 18.2346C9.74692 17.7141 10.1555 17.2057 10.5761 16.7095L9.81324 16.063C9.38141 16.5725 8.9618 17.0945 8.55503 17.6291L9.35085 18.2346ZM11.8793 15.2508C12.3268 14.7754 12.7858 14.3122 13.2559 13.8614L12.5637 13.1397C12.0814 13.6022 11.6103 14.0774 11.1511 14.5655L11.8793 15.2508ZM14.7024 12.5424C15.1955 12.1149 15.699 11.6999 16.2123 11.2972L15.5952 10.5104C15.0691 10.923 14.5529 11.3485 14.0474 11.7868L14.7024 12.5424ZM17.7822 10.1259C18.3145 9.74823 18.856 9.38295 19.4062 9.03005L18.8663 8.18831C18.3031 8.54953 17.7487 8.92354 17.2035 9.31034L17.7822 10.1259ZM21.0792 8.01026C21.6444 7.68309 22.2176 7.36823 22.7982 7.06569L22.3362 6.17885C21.7425 6.48815 21.1564 6.81013 20.5782 7.1448L21.0792 8.01026ZM24.5555 6.19803C25.1476 5.9213 25.7466 5.65678 26.3517 5.40447L25.9669 4.48149C25.3489 4.73914 24.7371 5.00933 24.1321 5.29207L24.5555 6.19803ZM28.1761 4.68756C28.7897 4.46074 29.409 4.24603 30.0331 4.0434L29.7244 3.09226C29.0876 3.29897 28.4557 3.51807 27.8294 3.74957L28.1761 4.68756ZM31.9095 3.47481C32.5394 3.29724 33.1737 3.13165 33.8117 2.97802L33.5777 2.00581C32.9273 2.16241 32.2806 2.33124 31.6382 2.51231L31.9095 3.47481ZM35.7276 2.55486C36.3693 2.42573 37.0142 2.30845 37.6616 2.20302L37.5009 1.21602C36.8413 1.32343 36.1843 1.44292 35.5303 1.57452L35.7276 2.55486ZM39.6053 1.92303C40.2549 1.84156 40.9065 1.77186 41.5595 1.71392L41.4711 0.717836C40.8061 0.776833 40.1425 0.847821 39.4809 0.930807L39.6053 1.92303ZM43.5196 1.57557C44.1736 1.54122 44.8284 1.51859 45.4835 1.50768L45.4668 0.50782C44.7998 0.518927 44.1331 0.541968 43.4672 0.576947L43.5196 1.57557ZM47.449 1.51012C48.104 1.52264 48.7587 1.54689 49.4127 1.58284L49.4676 0.584347C48.8017 0.547738 48.135 0.523054 47.4681 0.510298L47.449 1.51012ZM51.3725 1.72593C52.0253 1.78542 52.6767 1.85665 53.3262 1.93962L53.4529 0.947685C52.7915 0.863177 52.128 0.790633 51.4633 0.730056L51.3725 1.72593ZM55.2694 2.22396C55.9165 2.33079 56.5612 2.44943 57.2027 2.57989L57.402 1.59994C56.7483 1.46702 56.0915 1.34614 55.4322 1.23731L55.2694 2.22396ZM59.1178 3.00675C59.7555 3.16156 60.3896 3.32828 61.0194 3.5069L61.2922 2.54485C60.6501 2.36272 60.0037 2.19276 59.3536 2.03497L59.1178 3.00675ZM62.8952 4.07846C63.519 4.28193 64.1379 4.49742 64.7514 4.72492L65.0991 3.78732C64.4731 3.55516 63.8416 3.3353 63.2053 3.12775L62.8952 4.07846ZM66.5753 5.44377C67.1803 5.69657 67.779 5.96149 68.371 6.23851L68.7948 5.33277C68.1901 5.04977 67.5786 4.77922 66.9609 4.52111L66.5753 5.44377ZM70.1283 7.10695C70.7089 7.4096 71.2821 7.72445 71.8474 8.0515L72.3482 7.18595C71.7701 6.85146 71.184 6.52954 70.5905 6.22019L70.1283 7.10695ZM73.521 9.07084C74.0715 9.42348 74.6133 9.78838 75.146 10.1655L75.7239 9.34943C75.1785 8.96322 74.6238 8.58968 74.0605 8.2288L73.521 9.07084ZM76.7173 11.3352C77.2314 11.7373 77.7356 12.1516 78.2293 12.5782L78.8831 11.8215C78.3769 11.3842 77.8601 10.9595 77.3334 10.5475L76.7173 11.3352ZM79.6784 13.8946C80.1496 14.3446 80.6098 14.8068 81.0584 15.2813L81.785 14.5942C81.3246 14.1073 80.8524 13.6331 80.3692 13.1714L79.6784 13.8946ZM82.3652 16.7366C82.7873 17.2319 83.1975 17.7393 83.5951 18.2588L84.3891 17.6509C83.9808 17.1175 83.5597 16.5965 83.1263 16.088L82.3652 16.7366ZM84.7409 19.8403C85.1087 20.3773 85.4637 20.926 85.8053 21.4866L86.6592 20.9661C86.3083 20.3904 85.9436 19.8267 85.5659 19.2752L84.7409 19.8403ZM86.7749 23.1762C87.0846 23.7504 87.3808 24.336 87.663 24.9331L88.5671 24.5057C88.2773 23.8927 87.9731 23.2913 87.6551 22.7016L86.7749 23.1762ZM88.4466 26.7082C88.6942 27.3107 88.9281 27.9242 89.1478 28.5484L90.0911 28.2165C89.8657 27.576 89.6257 26.9466 89.3715 26.3281L88.4466 26.7082ZM89.7468 30.3967C89.9314 31.0184 90.1023 31.6501 90.2591 32.292L91.2306 32.0546C91.0699 31.397 90.8947 30.7495 90.7054 30.1121L89.7468 30.3967ZM90.6785 34.204C90.8015 34.8356 90.9112 35.4764 91.0074 36.1265L91.9966 35.9801C91.8983 35.3152 91.7859 34.6594 91.66 34.0128L90.6785 34.204ZM91.2539 38.0979C91.3188 38.7307 91.3712 39.3718 91.4106 40.0213L92.4088 39.9606C92.3685 39.2975 92.315 38.6425 92.2487 37.9958L91.2539 38.0979ZM91.49 41.9946C91.4967 42.3277 91.5 42.6628 91.5 43H92.5C92.5 42.6562 92.4966 42.3144 92.4898 41.9746L91.49 41.9946Z" fill="black"/>
</svg>
